<?xml version="1.0" encoding="UTF-8"?>
<svg width="24" height="24" version="1.1" viewBox="0 0 24 24" xmlns="http://www.w3.org/2000/svg" xmlns:cc="http://creativecommons.org/ns#" xmlns:dc="http://purl.org/dc/elements/1.1/" xmlns:rdf="http://www.w3.org/1999/02/22-rdf-syntax-ns#">
 <metadata>
  <rdf:RDF>
   <cc:Work rdf:about="">
    <dc:format>image/svg+xml</dc:format>
    <dc:type rdf:resource="http://purl.org/dc/dcmitype/StillImage"/>
    <dc:title/>
   </cc:Work>
  </rdf:RDF>
 </metadata>
 <flowRoot fill="#000000" font-family="Arial" font-size="40px" letter-spacing="0px" word-spacing="0px" style="line-height:1.25" xml:space="preserve"><flowRegion><rect x="-26.746" y="28.068" width="73.831" height="68.034"/></flowRegion><flowPara/></flowRoot>
 <text x="-15" y="50" fill="#000000" font-family="Impact" font-size="40px" letter-spacing="0px" word-spacing="0px" style="line-height:1.25" xml:space="preserve"><tspan x="-15" y="85.390625"/></text>
 <flowRoot fill="#000000" font-family="sans-serif" font-size="40px" letter-spacing="0px" word-spacing="0px" style="line-height:1.25" xml:space="preserve"><flowRegion><rect x=".875" y="30.938" width="39.75" height="49.25"/></flowRegion><flowPara>121</flowPara></flowRoot>
 <flowRoot fill="black" font-family="sans-serif" font-size="40px" letter-spacing="0px" word-spacing="0px" style="line-height:1.25" xml:space="preserve"><flowRegion><rect x="12.375" y="47" width="118.06" height="105.5"/></flowRegion><flowPara/></flowRoot>
 <g>
  <path id="Shape" d="m3.1959 3.984h13.031v3h-5.016v12h-3v-12h-5.016v-3z"/>
  <g aria-label="3">
   <path d="m19.731 13.741q0.98307 0.25391 1.4909 0.88542 0.51432 0.625 0.51432 1.5951 0 1.4453-1.1068 2.2005-1.1068 0.7487-3.2292 0.7487-0.7487 0-1.5039-0.1237-0.7487-0.11719-1.4844-0.35807v-1.9336q0.70312 0.35156 1.3932 0.53385 0.69662 0.17578 1.3672 0.17578 0.99609 0 1.5234-0.34505 0.53386-0.34505 0.53386-0.98958 0-0.66406-0.54688-1.0026-0.54036-0.34505-1.6016-0.34505h-1.0026v-1.6146h1.0547q0.94401 0 1.4062-0.29297 0.46224-0.29948 0.46224-0.90495 0-0.5599-0.44922-0.86589-0.44922-0.30599-1.2695-0.30599-0.60547 0-1.224 0.13672-0.61849 0.13672-1.2305 0.40364v-1.8359q0.74219-0.20833 1.4714-0.3125 0.72917-0.10417 1.4323-0.10417 1.8945 0 2.832 0.625 0.94401 0.61849 0.94401 1.8685 0 0.85286-0.44922 1.3997-0.44922 0.54036-1.3281 0.76172z" stroke-width="2.4575"/>
  </g>
 </g>
</svg>
