<?xml version="1.0" encoding="UTF-8"?>
<svg width="24" height="24" version="1.1" viewBox="0 0 24 24" xmlns="http://www.w3.org/2000/svg" xmlns:cc="http://creativecommons.org/ns#" xmlns:dc="http://purl.org/dc/elements/1.1/" xmlns:rdf="http://www.w3.org/1999/02/22-rdf-syntax-ns#">
 <metadata>
  <rdf:RDF>
   <cc:Work rdf:about="">
    <dc:format>image/svg+xml</dc:format>
    <dc:type rdf:resource="http://purl.org/dc/dcmitype/StillImage"/>
    <dc:title/>
   </cc:Work>
  </rdf:RDF>
 </metadata>
 <path id="Shape" d="m3.1959 3.984h13.031v3h-5.016v12h-3v-12h-5.016v-3z"/>
 <g>
  <flowRoot fill="#000000" font-family="Arial" font-size="40px" letter-spacing="0px" word-spacing="0px" style="line-height:1.25" xml:space="preserve"><flowRegion><rect x="-26.746" y="28.068" width="73.831" height="68.034"/></flowRegion><flowPara/></flowRoot>
  <text x="-15" y="50" fill="#000000" font-family="Impact" font-size="40px" letter-spacing="0px" word-spacing="0px" style="line-height:1.25" xml:space="preserve"><tspan x="-15" y="85.390625"/></text>
  <flowRoot fill="#000000" font-family="sans-serif" font-size="40px" letter-spacing="0px" word-spacing="0px" style="line-height:1.25" xml:space="preserve"><flowRegion><rect x=".875" y="30.938" width="39.75" height="49.25"/></flowRegion><flowPara>121</flowPara></flowRoot>
  <flowRoot fill="black" font-family="sans-serif" font-size="40px" letter-spacing="0px" word-spacing="0px" style="line-height:1.25" xml:space="preserve"><flowRegion><rect x="12.375" y="47" width="118.06" height="105.5"/></flowRegion><flowPara/></flowRoot>
  <g aria-label="2">
   <path d="m17.361 17.14h4.2773v1.8424h-7.0638v-1.8424l3.5482-3.1315q0.47526-0.42969 0.70312-0.83984 0.22786-0.41016 0.22786-0.85286 0-0.68359-0.46224-1.1003-0.45573-0.41667-1.2174-0.41667-0.58594 0-1.2826 0.25391-0.69662 0.2474-1.4909 0.74219v-2.1354q0.84636-0.27995 1.6732-0.42318 0.82682-0.14974 1.6211-0.14974 1.7448 0 2.7083 0.76823 0.97005 0.76823 0.97005 2.1419 0 0.79427-0.41016 1.4844-0.41016 0.68359-1.7253 1.8359z" stroke-width="2.4575"/>
  </g>
 </g>
</svg>
