<?xml version="1.0" encoding="UTF-8"?>
<svg width="24" height="24" version="1.1" viewBox="0 0 24 24" xmlns="http://www.w3.org/2000/svg" xmlns:cc="http://creativecommons.org/ns#" xmlns:dc="http://purl.org/dc/elements/1.1/" xmlns:rdf="http://www.w3.org/1999/02/22-rdf-syntax-ns#">
 <metadata>
  <rdf:RDF>
   <cc:Work rdf:about="">
    <dc:format>image/svg+xml</dc:format>
    <dc:type rdf:resource="http://purl.org/dc/dcmitype/StillImage"/>
    <dc:title/>
   </cc:Work>
  </rdf:RDF>
 </metadata>
 <flowRoot fill="#000000" font-family="Arial" font-size="40px" letter-spacing="0px" word-spacing="0px" style="line-height:1.25" xml:space="preserve"><flowRegion><rect x="-26.746" y="28.068" width="73.831" height="68.034"/></flowRegion><flowPara/></flowRoot>
 <text x="-15" y="50" fill="#000000" font-family="Impact" font-size="40px" letter-spacing="0px" word-spacing="0px" style="line-height:1.25" xml:space="preserve"><tspan x="-15" y="85.390625"/></text>
 <flowRoot fill="#000000" font-family="sans-serif" font-size="40px" letter-spacing="0px" word-spacing="0px" style="line-height:1.25" xml:space="preserve"><flowRegion><rect x=".875" y="30.938" width="39.75" height="49.25"/></flowRegion><flowPara>121</flowPara></flowRoot>
 <flowRoot fill="black" font-family="sans-serif" font-size="40px" letter-spacing="0px" word-spacing="0px" style="line-height:1.25" xml:space="preserve"><flowRegion><rect x="12.375" y="47" width="118.06" height="105.5"/></flowRegion><flowPara/></flowRoot>
 <g>
  <path id="Shape" d="m3.1959 3.984h13.031v3h-5.016v12h-3v-12h-5.016v-3z"/>
  <g aria-label="5">
   <path d="m14.933 9.2622h6.2305v1.8424h-4.2318v1.5039q0.28646-0.07813 0.57292-0.11719 0.29297-0.04557 0.60547-0.04557 1.7773 0 2.7669 0.89193 0.98958 0.88542 0.98958 2.474 0 1.5755-1.0807 2.4674-1.0742 0.89193-2.9883 0.89193-0.82682 0-1.6406-0.16276-0.80729-0.15625-1.6081-0.48177v-1.9727q0.79427 0.45573 1.5039 0.68359 0.71615 0.22786 1.3477 0.22786 0.91146 0 1.4323-0.44271 0.52734-0.44922 0.52734-1.2109 0-0.76823-0.52734-1.2109-0.52083-0.44271-1.4323-0.44271-0.54036 0-1.1523 0.14323-0.61198 0.13672-1.3151 0.42969z" stroke-width="2.4575"/>
  </g>
 </g>
</svg>
