<svg width="24" height="24" xmlns="http://www.w3.org/2000/svg"><path d="M3.196 3.984h13.03v3h-5.015v12h-3v-12H3.195v-3z"/><text x="-15" y="50" font-family="Impact" font-size="40" letter-spacing="0" word-spacing="0" style="line-height:1.25"/><flowRoot fill="#000" font-family="sans-serif" font-size="40" letter-spacing="0" word-spacing="0" style="line-height:1.25" xml:space="preserve"><flowRegion><path d="M12.375 47h118.06v105.5H12.375z"/></flowRegion><flowPara/></flowRoot><path d="M17.361 17.14h4.277v1.842h-7.064V17.14l3.549-3.131q.475-.43.703-.84.228-.41.228-.853 0-.684-.463-1.1-.455-.417-1.217-.417-.586 0-1.283.254-.696.247-1.49.742V9.66q.846-.28 1.673-.424.827-.15 1.62-.15 1.746 0 2.71.769.97.768.97 2.142 0 .794-.411 1.484-.41.684-1.725 1.836z" aria-label="2"/></svg>