<svg width="24" height="24" xmlns="http://www.w3.org/2000/svg"><text x="-15" y="50" font-family="Impact" font-size="40" letter-spacing="0" word-spacing="0" style="line-height:1.25"/><flowRoot fill="#000" font-family="sans-serif" font-size="40" letter-spacing="0" word-spacing="0" style="line-height:1.25" xml:space="preserve"><flowRegion><path d="M12.375 47h118.06v105.5H12.375z"/></flowRegion><flowPara/></flowRoot><path d="M3.196 3.984h13.03v3h-5.015v12h-3v-12H3.195v-3z"/><path d="M14.933 9.262h6.23v1.843h-4.231v1.503q.286-.078.573-.117.293-.045.605-.045 1.777 0 2.767.892.99.885.99 2.474 0 1.575-1.081 2.467-1.074.892-2.988.892-.827 0-1.641-.163-.807-.156-1.608-.482v-1.972q.794.456 1.504.683.716.228 1.347.228.912 0 1.433-.442.527-.45.527-1.211 0-.769-.527-1.211-.521-.443-1.433-.443-.54 0-1.152.143-.612.137-1.315.43z" aria-label="5"/></svg>