<svg width="24" height="24" xmlns="http://www.w3.org/2000/svg"><text x="-15" y="50" font-family="Impact" font-size="40" letter-spacing="0" word-spacing="0" style="line-height:1.25"/><flowRoot fill="#000" font-family="sans-serif" font-size="40" letter-spacing="0" word-spacing="0" style="line-height:1.25" xml:space="preserve"><flowRegion><path d="M12.375 47h118.06v105.5H12.375z"/></flowRegion><flowPara/></flowRoot><path d="M3.196 3.984h13.03v3h-5.015v12h-3v-12H3.195v-3z"/><path d="M19.731 13.741q.983.254 1.49.885.515.625.515 1.596 0 1.445-1.107 2.2-1.106.749-3.229.749-.748 0-1.504-.124-.748-.117-1.484-.358v-1.934q.703.352 1.393.534.697.176 1.367.176.996 0 1.524-.345.534-.345.534-.99 0-.664-.547-1.002-.54-.345-1.602-.345H16.08v-1.615h1.054q.944 0 1.406-.293.463-.3.463-.905 0-.56-.45-.866-.449-.306-1.27-.306-.605 0-1.223.137-.619.137-1.23.404V9.503q.742-.209 1.47-.313.73-.104 1.433-.104 1.895 0 2.832.625.944.619.944 1.869 0 .852-.45 1.4-.448.54-1.327.761z" aria-label="3"/></svg>